<?xml version="1.0" encoding="UTF-8"?>
<!DOCTYPE svg PUBLIC "-//W3C//DTD SVG 1.1//EN" "http://www.w3.org/Graphics/SVG/1.1/DTD/svg11.dtd">
<!-- Creator: CorelDRAW 2017 -->
<svg xmlns="http://www.w3.org/2000/svg" xml:space="preserve" width="9.153in" height="0.838in" version="1.1" style="shape-rendering:geometricPrecision; text-rendering:geometricPrecision; image-rendering:optimizeQuality; fill-rule:evenodd; clip-rule:evenodd"
viewBox="0 0 915300 83800"
 xmlns:xlink="http://www.w3.org/1999/xlink">
 <defs>
  <style type="text/css">
   <![CDATA[
    .fil5 {fill:#FEFEFE;fill-rule:nonzero}
    .fil0 {fill:#373435;fill-rule:nonzero}
    .fil3 {fill:#FFEFB3;fill-rule:nonzero}
    .fil2 {fill:#FFCC29;fill-rule:nonzero}
    .fil4 {fill:#F27135;fill-rule:nonzero}
    .fil1 {fill:#ED3237;fill-rule:nonzero}
    .fil6 {fill:#009FD7;fill-rule:nonzero}
   ]]>
  </style>
 </defs>
 <g id="Layer_x0020_1">
  <metadata id="CorelCorpID_0Corel-Layer"/>
  <g id="_2961109371296">
   <polygon class="fil0" points="17391,1531 68897,1531 64048,21369 39353,21369 36916,31790 62677,31790 58190,50168 32766,50168 26664,76286 46,76286 "/>
   <polygon class="fil0" points="75894,1531 102509,1531 85180,76286 58570,76286 "/>
   <path class="fil0" d="M129118 37173c8555,0 14536,-5046 14536,-12219 0,-3809 -2808,-5715 -8304,-5715 -1583,0 -2441,115 -4147,457l-4029 17248c856,113 972,229 1944,229zm-19645 -35192l1704 -220c8556,-1015 19162,-1687 25028,-1687 9765,0 17332,1120 23077,3478 7315,3024 11721,9633 11721,17593 0,6830 -2328,13331 -6726,18374 -3779,4374 -7193,6504 -14272,8633l-1714 561c730,566 979,783 1350,1121 2068,2345 8292,14463 13546,26452l-29300 0c-3789,-10656 -4882,-13455 -9888,-25561l-5861 25561 -25880 0 17216 -74305z"/>
   <polygon class="fil0" points="234175,1531 298731,1531 294221,23172 275056,23172 262364,76286 235753,76286 248442,23172 227677,23172 "/>
   <path class="fil0" d="M274648 69198c572,0 903,-282 903,-799 0,-512 -303,-783 -886,-783 -122,0 -142,0 -272,24l0 1534c103,23 150,23 256,23zm-2342 -3109c328,-30 390,-50 1029,-91 654,-57 939,-87 1207,-87 2132,0 3191,828 3191,2407 0,956 -408,1537 -1260,1856l-93 30c71,50 93,72 124,123 221,201 974,1329 1603,2359l-2429 0c-507,-930 -659,-1182 -1285,-2229l0 2229 -2086 0 0 -6597zm2518 9000c3156,0 5691,-2532 5691,-5663 0,-3167 -2536,-5696 -5691,-5696 -3146,0 -5675,2529 -5675,5669 0,3191 2507,5691 5675,5691zm0 -12165c3587,0 6491,2887 6491,6474 0,3616 -2886,6500 -6491,6500 -3646,0 -6478,-2837 -6478,-6500 0,-3610 2860,-6474 6478,-6474z"/>
   <path class="fil0" d="M219304 36501c-3046,-2468 -6224,-4374 -12700,-7396l-5240 -2465c-1710,-900 -2567,-1793 -2567,-2799 0,-2696 3426,-4718 8054,-4718 3481,0 7611,1014 15508,3591l5460 -20223c-5915,-1611 -11674,-2417 -17422,-2417 -21735,0 -38464,11879 -38464,27229 0,8074 5374,13791 18806,20064 6346,2915 7453,3698 7453,5712 0,3030 -3296,4933 -8671,4933 -4761,0 -10868,-1455 -19162,-4485l-6 0 -5849 20852c7482,2227 15663,3466 23311,3466 10376,0 18304,-2344 25142,-7271 7563,-5385 12449,-13676 12449,-21190 0,-5047 -2196,-9640 -6102,-12881z"/>
   <path class="fil0" d="M630763 33637l-5629 0 0 -14013 16311 0 0 14013 -10682 0zm37111 -14013l-10688 -4939 0 -5744 -15742 -7356 -42735 0 0 74784 15742 7356 10682 0 0 -26335 5629 2639 0 5657 10682 4985 0 5698 15742 7356 10683 0 0 -10685 -10683 -4895 0 -5786 -10682 -4894 0 -5789 10682 0 0 -10685 -3 -3 3 -2 0 6 10683 0 0 -21353 4 -13z"/>
   <polygon class="fil0" points="570432,1585 527700,1585 527700,76369 543442,83725 596860,83725 596860,73040 581115,65687 554124,65687 554124,51675 586174,51675 586174,40990 570432,33637 554124,33637 554124,19624 596860,19624 596860,8941 581115,1585 "/>
   <polygon class="fil0" points="499041,1585 499041,38685 488357,33637 482732,33637 482732,8941 466991,1585 456306,1585 456306,76369 472046,83725 482732,83725 482732,73040 493414,73040 493414,68038 499041,70685 499041,76369 514782,83725 525464,83725 525464,8941 509722,1585 "/>
   <path class="fil0" d="M364270 22956l0 10681 -16308 0 0 -14013 16308 0 0 3332zm57906 -3241l5621 0 0 45972 -16306 0 0 -42683 14 -48 0 -3241 10671 0zm-42165 31961l0 -10539 5056 0 0 24551 10682 5028 0 5654 15743 7356 32050 0 0 -10685 10685 0 0 -53416 -10685 -4881 0 -5711 -15744 -7354 -32048 0 0 10592 -10682 0 0 4858 -5056 -2357 0 -5830 -15740 -7356 -42732 0 0 74784 15742 7356 10682 0 0 -32050 32048 0z"/>
   <polygon class="fil1" points="364270,22956 364270,33637 374954,33637 374954,12269 364270,12269 "/>
   <polygon class="fil1" points="342904,33637 332221,33637 332221,12269 364270,12269 364270,1585 321538,1585 321538,76369 332221,76369 332221,44321 364270,44321 364270,33637 "/>
   <polygon class="fil1" points="427796,22956 427796,65687 438482,65687 438482,12269 427796,12269 "/>
   <polygon class="fil1" points="395748,44321 395748,12269 385065,12269 385065,65687 395748,65687 "/>
   <polygon class="fil1" points="406431,65687 395748,65687 395748,76369 427796,76369 427796,65687 "/>
   <polygon class="fil1" points="417115,12269 427796,12269 427796,1585 395748,1585 395748,12269 "/>
   <polygon class="fil1" points="488357,33637 477672,33637 477672,55006 488357,55006 "/>
   <polygon class="fil1" points="466991,44321 466991,1585 456306,1585 456306,76369 466991,76369 466991,65687 477672,65687 477672,55006 466991,55006 "/>
   <polygon class="fil1" points="499041,12269 499041,55006 488357,55006 488357,65687 499041,65687 499041,76369 509722,76369 509722,1585 499041,1585 "/>
   <polygon class="fil1" points="559750,1585 527700,1585 527700,76369 581115,76369 581115,65687 538382,65687 538382,44321 570432,44321 570432,33637 538382,33637 538382,12269 581115,12269 581115,1585 "/>
   <polygon class="fil1" points="630763,65687 641445,65687 641445,55006 630763,55006 "/>
   <polygon class="fil1" points="641444,76369 652130,76369 652130,65687 641444,65687 "/>
   <polygon class="fil1" points="620080,33637 609392,33637 609392,12269 641444,12269 641444,1585 598710,1585 598710,76369 609392,76369 609392,44321 620080,44321 620080,55006 630763,55006 630763,44321 641444,44321 641444,33637 "/>
   <polygon class="fil1" points="641444,12269 641444,33637 652130,33637 652130,12269 "/>
   <polygon class="fil0" points="898970,1231 841442,1231 841442,9449 833220,9449 833220,25888 849630,42326 841380,42326 841380,50647 833220,50647 833220,67103 849504,83481 865941,83481 865941,75261 874157,75261 874157,67190 890596,83481 907035,83481 907035,75261 915254,75261 915254,17730 "/>
   <polygon class="fil2" points="898959,9446 841431,9446 841431,25998 866086,25998 866086,34216 857867,34216 857867,42326 849648,42326 849648,50652 841431,50652 841431,67103 857867,67103 857867,58872 866086,58872 866086,50652 874306,50652 874306,42434 882522,42434 882522,67087 898959,67087 "/>
   <polygon class="fil3" points="841444,17709 898959,17709 898959,9446 841444,9446 "/>
   <polygon class="fil4" points="866098,50647 874317,50647 874317,42428 866098,42428 "/>
   <polygon class="fil4" points="882525,67104 898975,67104 898975,58886 882525,58886 "/>
   <polygon class="fil4" points="857892,58888 866112,58888 866112,50671 857892,50671 "/>
   <polygon class="fil4" points="849653,67103 857872,67103 857872,58885 849653,58885 "/>
   <polygon class="fil5" points="890633,17709 898959,17709 898959,9446 890633,9446 "/>
   <polygon class="fil0" points="724459,1588 724459,65687 708152,65687 708152,8941 692410,1588 681728,1588 681728,65687 692410,70717 692410,76369 708152,83725 740203,83725 740203,73041 750885,73041 750885,8941 735143,1588 "/>
   <path class="fil0" d="M789589 33637l-5626 0 0 -14012 16310 0 0 14012 -10683 0zm26425 -19138l0 -5557 -15742 -7353 -42736 0 0 74781 15742 7356 10685 0 0 -32050 32052 0 0 -10685 10682 0 0 -21365 -176 0 -10506 -5126z"/>
   <polygon class="fil6" points="724459,12269 724459,65687 735143,65687 735143,1588 724459,1588 "/>
   <polygon class="fil6" points="692410,44324 692410,1588 681728,1588 681728,65687 692410,65687 "/>
   <polygon class="fil6" points="703096,65687 692410,65687 692410,76369 724459,76369 724459,65687 "/>
   <polygon class="fil6" points="778907,33637 768218,33637 768218,12269 800272,12269 800272,1588 757536,1588 757536,76369 768218,76369 768218,44324 800272,44324 800272,33637 "/>
   <polygon class="fil6" points="800272,12269 800272,33637 810954,33637 810954,12269 "/>
   <path class="fil0" d="M787443 73668c28,307 98,570 210,786 114,216 257,392 433,528 176,136 383,233 617,293 232,62 479,93 743,93 308,0 578,-39 803,-117 225,-77 410,-181 550,-314 142,-131 247,-285 315,-458 68,-174 100,-358 100,-552 0,-269 -60,-489 -182,-657 -125,-165 -282,-304 -476,-409 -199,-106 -424,-192 -682,-257 -252,-64 -513,-128 -781,-188 -269,-61 -526,-133 -785,-218 -254,-83 -479,-196 -678,-339 -196,-143 -356,-324 -478,-547 -122,-221 -185,-504 -185,-846 0,-237 53,-469 153,-694 100,-226 250,-426 444,-599 196,-176 443,-314 738,-415 298,-106 640,-156 1029,-156 390,0 735,56 1025,164 296,109 537,259 732,449 193,191 339,412 438,663 94,251 143,519 143,802l-626 0c0,-263 -49,-493 -140,-685 -96,-194 -224,-352 -383,-474 -163,-122 -344,-213 -553,-271 -207,-58 -418,-85 -635,-85 -338,0 -620,44 -850,139 -228,93 -410,213 -544,361 -136,149 -228,313 -279,495 -53,180 -63,360 -31,539 37,228 131,407 271,543 142,135 315,245 521,334 210,88 435,157 685,213 246,54 499,113 757,174 260,61 510,134 751,217 241,84 453,198 642,339 185,142 337,323 452,547 111,222 168,500 168,837 0,644 -225,1143 -668,1498 -444,354 -1071,531 -1874,531 -364,0 -697,-47 -1007,-140 -310,-93 -578,-236 -803,-426 -225,-190 -401,-426 -526,-705 -128,-281 -190,-611 -190,-990l637 0z"/>
   <polygon class="fil0" points="793053,75746 793053,68783 794060,68783 796339,74924 796360,74924 798603,68783 799599,68783 799599,75746 798941,75746 798941,69539 798921,69539 796639,75746 796021,75746 793730,69539 793710,69539 793710,75746 "/>
  </g>
 </g>
</svg>
